<svg xmlns="http://www.w3.org/2000/svg" viewBox="0 0 128 128">
  <defs>
    <linearGradient id="grad" x1="0%" y1="0%" x2="100%" y2="100%">
      <stop offset="0%" stop-color="#38bdf8"/>
      <stop offset="100%" stop-color="#0ea5e9"/>
    </linearGradient>
  </defs>
  <rect width="128" height="128" rx="28" fill="#0f172a"/>
  <path d="M36 96h12l14-64h-12l-14 64zm28 0h30c12 0 20-8 20-20 0-8-4-14-10-18 6-4 10-9 10-18 0-10-8-18-20-18H62l-14 64h28zm8-36 6-26h16c4 0 6 2 6 6s-2 10-8 10H72zm-6 28 4-18h24c4 0 6 2 6 6s-2 12-8 12H66z" fill="url(#grad)"/>
</svg>


